<?xml version="1.0" encoding="UTF-8"?> <svg xmlns="http://www.w3.org/2000/svg" width="305" height="72" viewBox="0 0 305 72" fill="none"><path d="M253.384 16.7455C256.395 16.7455 258.835 14.4084 258.835 11.5255C258.835 8.64256 256.395 6.3055 253.384 6.3055C250.374 6.3055 247.934 8.64256 247.934 11.5255C247.934 14.4084 250.374 16.7455 253.384 16.7455Z" fill="black"></path><path d="M135.538 59.0515C123.542 59.0515 114.837 50.9971 114.837 39.9085C114.837 28.82 123.542 20.8285 135.538 20.8285C141.382 20.8285 146.678 22.7285 150.454 26.1742C154.231 29.6199 156.319 34.5113 156.319 39.9085C156.319 45.3056 154.231 50.1941 150.454 53.6772C146.678 57.1598 141.379 59.0515 135.538 59.0515ZM135.538 29.1514C129.303 29.1514 124.951 33.5742 124.951 39.9028C124.951 46.2313 129.303 50.6541 135.538 50.6541C141.913 50.6541 146.194 46.3341 146.194 39.9028C146.194 33.4713 141.913 29.1428 135.538 29.1428V29.1514Z" fill="black"></path><path d="M170.803 7.12878H160.761V58.5745H170.803V7.12878Z" fill="black"></path><path d="M185.925 7.12878H175.883V58.5745H185.925V7.12878Z" fill="black"></path><path d="M211.082 59.0515C199.087 59.0515 190.382 50.9971 190.382 39.9085C190.382 28.82 199.087 20.8285 211.082 20.8285C216.927 20.8285 222.222 22.7285 225.999 26.1742C229.775 29.6199 231.864 34.5113 231.864 39.9085C231.864 45.3056 229.775 50.1941 225.999 53.6772C222.222 57.1598 216.918 59.0515 211.082 59.0515ZM211.082 29.1514C204.847 29.1514 200.492 33.5742 200.492 39.9028C200.492 46.2313 204.847 50.6541 211.082 50.6541C217.458 50.6541 221.739 46.3341 221.739 39.9028C221.739 33.4713 217.458 29.1428 211.082 29.1428V29.1514Z" fill="black"></path><path d="M258.405 20.8228H248.364V58.5741H258.405V20.8228Z" fill="black"></path><path d="M284.187 59.0515C272.194 59.0515 263.489 50.9971 263.489 39.9085C263.489 28.82 272.194 20.8285 284.187 20.8285C290.034 20.8285 295.326 22.7285 299.103 26.1742C302.88 29.6199 304.968 34.5113 304.968 39.9085C304.968 45.3056 302.88 50.1941 299.103 53.6772C295.326 57.1598 290.028 59.0515 284.187 59.0515ZM284.187 29.1514C277.955 29.1514 273.599 33.5742 273.599 39.9028C273.599 46.2313 277.955 50.6541 284.187 50.6541C290.562 50.6541 294.846 46.3341 294.846 39.9028C294.846 33.4713 290.562 29.1428 284.187 29.1428V29.1514Z" fill="black"></path><path d="M69.9184 72V20.5514H79.9603V23.2857C83.2453 21.6338 86.9063 20.7876 90.6163 20.8228C96.4635 20.8228 101.756 22.7228 105.533 26.1686C109.309 29.6143 111.398 34.5057 111.398 39.9028C111.398 45.2999 109.309 50.1886 105.533 53.6712C101.756 57.1543 96.4667 59.0515 90.6163 59.0515C86.9044 59.0859 83.2416 58.2338 79.9603 56.5714V72H69.9184ZM90.6163 29.1429C84.3844 29.1429 80.0287 33.5657 80.0287 39.8942C80.0287 46.2226 84.3844 50.6458 90.6163 50.6458C96.9913 50.6458 101.276 46.3258 101.276 39.8942C101.276 33.4628 96.9913 29.1429 90.6163 29.1429Z" fill="black"></path><path d="M238.768 58.5713C237.913 58.5718 237.077 58.3296 236.366 57.8752C235.656 57.4207 235.102 56.775 234.774 56.0187C234.447 55.2625 234.361 54.4306 234.527 53.6276C234.694 52.8251 235.106 52.0876 235.71 51.5089C236.314 50.9301 237.084 50.5357 237.922 50.3766C238.761 50.217 239.629 50.2991 240.419 50.6123C241.208 50.926 241.883 51.4566 242.357 52.1376C242.832 52.8182 243.085 53.6184 243.084 54.437C243.083 55.5331 242.627 56.5837 241.818 57.3588C241.009 58.1338 239.912 58.5699 238.768 58.5713Z" fill="black"></path><path d="M56.5833 11.3141H47.1054L52.0188 19.4627L56.5833 11.3141Z" fill="#FFC127"></path><path d="M61.9292 44.0285L55.5244 33.3886L35.3127 0L0 58.5713H18.9138C21.4405 58.5681 23.9226 57.9343 26.1152 56.7319C28.3078 55.529 30.1351 53.7996 31.4165 51.7143L41.0853 35.5628L35.7154 26.6571L24.045 46.1144C23.3831 47.1939 22.4387 48.0891 21.3049 48.7119C20.1711 49.3347 18.8873 49.6635 17.5802 49.6658H16.1453L35.3187 17.86L59.8678 58.5713H66.8275V52.0886L61.9503 44.0285H61.9292Z" fill="black"></path></svg> 