<?xml version="1.0" encoding="UTF-8"?> <svg xmlns="http://www.w3.org/2000/svg" width="215" height="72" viewBox="0 0 215 72" fill="none"><g clip-path="url(#clip0_18_31)"><path d="M24 36C24 32.8174 25.2643 29.7652 27.5147 27.5147C29.7652 25.2643 32.8174 24 36 24C39.1826 24 42.2348 25.2643 44.4853 27.5147C46.7357 29.7652 48 32.8174 48 36C48 39.1826 46.7357 42.2348 44.4853 44.4853C42.2348 46.7357 39.1826 48 36 48C32.8174 48 29.7652 46.7357 27.5147 44.4853C25.2643 42.2348 24 39.1826 24 36Z" fill="#1ABCFE"></path><path d="M0 60C0 56.8174 1.26428 53.7652 3.51472 51.5147C5.76515 49.2643 8.8174 48 12 48H24V60C24 63.1826 22.7357 66.2348 20.4853 68.4853C18.2348 70.7357 15.1826 72 12 72C8.8174 72 5.76515 70.7357 3.51472 68.4853C1.26428 66.2348 0 63.1826 0 60H0Z" fill="#0ACF83"></path><path d="M24 0V24H36C39.1826 24 42.2348 22.7357 44.4853 20.4853C46.7357 18.2348 48 15.1826 48 12C48 8.8174 46.7357 5.76515 44.4853 3.51472C42.2348 1.26428 39.1826 0 36 0L24 0Z" fill="#FF7262"></path><path d="M0 12C0 15.1826 1.26428 18.2348 3.51472 20.4853C5.76515 22.7357 8.8174 24 12 24H24V0H12C8.8174 0 5.76515 1.26428 3.51472 3.51472C1.26428 5.76515 0 8.8174 0 12H0Z" fill="#F24E1E"></path><path d="M0 36C0 39.1826 1.26428 42.2348 3.51472 44.4853C5.76515 46.7357 8.8174 48 12 48H24V24H12C8.8174 24 5.76515 25.2643 3.51472 27.5147C1.26428 29.7652 0 32.8174 0 36H0Z" fill="#A259FF"></path></g><g clip-path="url(#clip1_18_31)"><path d="M70.5084 10.1053V50.262L75.6822 50.2819V31.1597H88.1191V26.1002H75.6623V15.1448H91.88V10.1053H70.5084ZM101.153 18.2721C102.05 18.2721 102.911 17.9153 103.545 17.2803C104.179 16.6452 104.536 15.7839 104.536 14.8858C104.536 13.9877 104.179 13.1264 103.545 12.4914C102.911 11.8564 102.05 11.4996 101.153 11.4996C100.256 11.4996 99.3954 11.8564 98.761 12.4914C98.1265 13.1264 97.7701 13.9877 97.7701 14.8858C97.7701 15.7839 98.1265 16.6452 98.761 17.2803C99.3954 17.9153 100.256 18.2721 101.153 18.2721ZM98.5462 23.3116V50.2819H103.72V23.3116H98.5462Z" fill="black"></path><path fill-rule="evenodd" clip-rule="evenodd" d="M122.843 22.5347C115.998 22.5347 111.222 28.3312 111.222 35.2232C111.222 42.1151 115.998 47.9116 122.843 47.9116C125.987 47.9116 128.574 46.7164 130.464 44.7245V48.31C130.477 49.3813 130.278 50.4446 129.878 51.4384C129.479 52.4322 128.886 53.3368 128.135 54.0999C127.383 54.863 126.488 55.4695 125.502 55.8843C124.515 56.2991 123.456 56.514 122.385 56.5166C120.734 56.5166 119.102 55.8792 117.809 54.9629L115.222 59.4447C117.222 60.739 119.534 61.4688 121.914 61.5573C124.294 61.6458 126.654 61.0895 128.745 59.9473C130.836 58.805 132.58 57.1191 133.793 55.0674C135.006 53.0157 135.644 50.6742 135.638 48.29V23.3315H130.464V25.7417C128.574 23.7498 125.987 22.5546 122.843 22.5546V22.5347ZM116.376 35.2232C116.376 30.9406 119.639 27.5742 123.42 27.5742C127.201 27.5742 130.444 30.9605 130.444 35.2232C130.444 39.5057 127.181 42.8521 123.42 42.8521C119.639 42.8521 116.376 39.5057 116.376 35.2232Z" fill="black"></path><path d="M154.224 27.5742C152.744 27.6004 151.334 28.2086 150.299 29.2672C149.264 30.3258 148.686 31.7498 148.692 33.2312V50.2819H143.518V23.3116H148.692V25.7815C149.466 24.7546 150.471 23.9252 151.626 23.361C152.781 22.7968 154.053 22.5137 155.338 22.5347C158.96 22.5347 161.746 24.3274 163.338 27.0763C164.226 25.6983 165.441 24.5621 166.875 23.7696C168.31 22.977 169.918 22.5527 171.556 22.5347C177.426 22.5347 181.107 27.2755 181.107 33.1516V50.2819H175.973V33.2113C175.979 31.7299 175.402 30.3059 174.366 29.2473C173.331 28.1887 171.921 27.5805 170.442 27.5543C168.962 27.5805 167.552 28.1887 166.517 29.2473C165.481 30.3059 164.904 31.7299 164.91 33.2113V50.262H159.736V33.2113C159.741 31.7333 159.167 30.3122 158.136 29.2542C157.105 28.1961 155.7 27.5856 154.224 27.5543V27.5742Z" fill="black"></path><path fill-rule="evenodd" clip-rule="evenodd" d="M208.628 26.3791C207.453 25.1528 206.04 24.1794 204.477 23.5183C202.913 22.8573 201.231 22.5226 199.534 22.5347C191.853 22.5347 186.401 29.0283 186.401 36.7968C186.401 44.5652 191.853 51.0588 199.534 51.0588C201.231 51.0674 202.912 50.7311 204.475 50.0703C206.038 49.4095 207.451 48.4379 208.628 47.2144V50.2819H213.782V23.3116H208.608V26.3791H208.628ZM191.554 36.7968C191.554 31.6576 195.494 27.5742 200.091 27.5742C204.668 27.5742 208.628 31.6576 208.628 36.7968C208.628 41.9359 204.688 45.9993 200.091 45.9993C195.514 45.9993 191.554 41.9359 191.554 36.7968Z" fill="black"></path></g><defs><clipPath id="clip0_18_31"><rect width="48" height="72" fill="white"></rect></clipPath><clipPath id="clip1_18_31"><rect width="145.263" height="51.7895" fill="white" transform="translate(69.4736 10.1053)"></rect></clipPath></defs></svg> 