<?xml version="1.0" encoding="UTF-8"?> <svg xmlns="http://www.w3.org/2000/svg" width="2070" height="1563" viewBox="0 0 2070 1563" fill="none"><g clip-path="url(#clip0_127_230)"><rect width="2069.61" height="1563" fill="#DBDBDB"></rect><path d="M-532 -309.581C733.882 -1624.13 942.86 835.312 2158 -326.948" stroke="#D4D4D4" stroke-width="10"></path><path d="M-532 -259.581C733.882 -1574.13 942.86 885.312 2158 -276.948" stroke="#D4D4D4" stroke-width="10"></path><path d="M-532 -209.581C733.882 -1524.13 942.86 935.312 2158 -226.948" stroke="#D4D4D4" stroke-width="10"></path><path d="M-532 -159.581C733.882 -1474.13 942.86 985.312 2158 -176.948" stroke="#D4D4D4" stroke-width="10"></path><path d="M-532 -109.581C733.882 -1424.13 942.86 1035.31 2158 -126.948" stroke="#D4D4D4" stroke-width="10"></path><path d="M-532 -59.5814C733.882 -1374.13 942.86 1085.31 2158 -76.9484" stroke="#D4D4D4" stroke-width="10"></path><path d="M-532 -10.5814C733.882 -1325.13 942.86 1134.31 2158 -27.9484" stroke="#D4D4D4" stroke-width="10"></path><path d="M-532 39.4186C733.882 -1275.13 942.86 1184.31 2158 22.0516" stroke="#D4D4D4" stroke-width="10"></path><path d="M-532 89.4186C733.882 -1225.13 942.86 1234.31 2158 72.0516" stroke="#D4D4D4" stroke-width="10"></path><path d="M-532 139.419C733.882 -1175.13 942.86 1284.31 2158 122.052" stroke="#D4D4D4" stroke-width="10"></path><path d="M-532 189.419C733.882 -1125.13 942.86 1334.31 2158 172.052" stroke="#D4D4D4" stroke-width="10"></path><path d="M-532 239.419C733.882 -1075.13 942.86 1384.31 2158 222.052" stroke="#D4D4D4" stroke-width="10"></path><path d="M-532 291.419C733.882 -1023.13 942.86 1436.31 2158 274.052" stroke="#D4D4D4" stroke-width="10"></path><path d="M-532 341.419C733.882 -973.132 942.86 1486.31 2158 324.052" stroke="#D4D4D4" stroke-width="10"></path><path d="M-532 391.419C733.882 -923.132 942.86 1536.31 2158 374.052" stroke="#D4D4D4" stroke-width="10"></path><path d="M-532 441.419C733.882 -873.132 942.86 1586.31 2158 424.052" stroke="#D4D4D4" stroke-width="10"></path><path d="M-532 491.419C733.882 -823.132 942.86 1636.31 2158 474.052" stroke="#D4D4D4" stroke-width="10"></path><path d="M-532 541.419C733.882 -773.132 942.86 1686.31 2158 524.052" stroke="#D4D4D4" stroke-width="10"></path><path d="M-532 590.419C733.882 -724.132 942.86 1735.31 2158 573.052" stroke="#D4D4D4" stroke-width="10"></path><path d="M-532 640.419C733.882 -674.132 942.86 1785.31 2158 623.052" stroke="#D4D4D4" stroke-width="10"></path><path d="M-532 690.419C733.882 -624.132 942.86 1835.31 2158 673.052" stroke="#D4D4D4" stroke-width="10"></path><path d="M-532 740.419C733.882 -574.132 942.86 1885.31 2158 723.052" stroke="#D4D4D4" stroke-width="10"></path><path d="M-532 790.419C733.882 -524.132 942.86 1935.31 2158 773.052" stroke="#D4D4D4" stroke-width="10"></path><path d="M-532 840.419C733.882 -474.132 942.86 1985.31 2158 823.052" stroke="#D4D4D4" stroke-width="10"></path><path d="M-532 892.419C733.882 -422.132 942.86 2037.31 2158 875.052" stroke="#D4D4D4" stroke-width="10"></path><path d="M-532 942.419C733.882 -372.132 942.86 2087.31 2158 925.052" stroke="#D4D4D4" stroke-width="10"></path><path d="M-532 992.419C733.882 -322.132 942.86 2137.31 2158 975.052" stroke="#D4D4D4" stroke-width="10"></path><path d="M-532 1042.42C733.882 -272.132 942.86 2187.31 2158 1025.05" stroke="#D4D4D4" stroke-width="10"></path><path d="M-532 1092.42C733.882 -222.132 942.86 2237.31 2158 1075.05" stroke="#D4D4D4" stroke-width="10"></path><path d="M-532 1142.42C733.882 -172.132 942.86 2287.31 2158 1125.05" stroke="#D4D4D4" stroke-width="10"></path><path d="M-532 1191.42C733.882 -123.132 942.86 2336.31 2158 1174.05" stroke="#D4D4D4" stroke-width="10"></path><path d="M-532 1241.42C733.882 -73.1316 942.86 2386.31 2158 1224.05" stroke="#D4D4D4" stroke-width="10"></path><path d="M-532 1291.42C733.882 -23.1316 942.86 2436.31 2158 1274.05" stroke="#D4D4D4" stroke-width="10"></path><path d="M-532 1341.42C733.882 26.8684 942.86 2486.31 2158 1324.05" stroke="#D4D4D4" stroke-width="10"></path><path d="M-532 1391.42C733.882 76.8684 942.86 2536.31 2158 1374.05" stroke="#D4D4D4" stroke-width="10"></path><path d="M-532 1441.42C733.882 126.868 942.86 2586.31 2158 1424.05" stroke="#D4D4D4" stroke-width="10"></path><path d="M-532 1493.42C733.882 178.868 942.86 2638.31 2158 1476.05" stroke="#D4D4D4" stroke-width="10"></path><path d="M-532 1543.42C733.882 228.868 942.86 2688.31 2158 1526.05" stroke="#D4D4D4" stroke-width="10"></path><path d="M-532 1593.42C733.882 278.868 942.86 2738.31 2158 1576.05" stroke="#D4D4D4" stroke-width="10"></path><path d="M-532 1643.42C733.882 328.868 942.86 2788.31 2158 1626.05" stroke="#D4D4D4" stroke-width="10"></path><path d="M-532 1693.42C733.882 378.868 942.86 2838.31 2158 1676.05" stroke="#D4D4D4" stroke-width="10"></path><path d="M-532 1743.42C733.882 428.868 942.86 2888.31 2158 1726.05" stroke="#D4D4D4" stroke-width="10"></path><path d="M-532 1792.42C733.882 477.868 942.86 2937.31 2158 1775.05" stroke="#D4D4D4" stroke-width="10"></path><path d="M-532 1842.42C733.882 527.868 942.86 2987.31 2158 1825.05" stroke="#D4D4D4" stroke-width="10"></path><path d="M-532 1892.42C733.882 577.868 942.86 3037.31 2158 1875.05" stroke="#D4D4D4" stroke-width="10"></path><path d="M-532 1942.42C733.882 627.868 942.86 3087.31 2158 1925.05" stroke="#D4D4D4" stroke-width="10"></path><path fill-rule="evenodd" clip-rule="evenodd" d="M1129.54 714.806C1147.28 714.806 1161.66 700.298 1161.66 682.403C1161.66 664.508 1147.28 650 1129.54 650C1111.8 650 1097.42 664.508 1097.42 682.403C1097.42 700.298 1111.8 714.806 1129.54 714.806ZM1040.64 911.022H855.795C844.986 911.022 838.391 899.14 844.104 889.964L967.377 691.993C972.682 683.475 984.982 683.253 990.506 691.631C1009.79 720.872 1049.33 780.956 1083.35 833.318L1119.06 775.633C1124.24 767.258 1136.28 766.875 1141.99 774.903L1223.42 889.468C1229.87 898.538 1223.5 911.114 1212.37 911.224L1133.46 912L1040.64 911.022Z" fill="url(#paint0_linear_127_230)"></path></g><defs><linearGradient id="paint0_linear_127_230" x1="1034" y1="650" x2="1034" y2="912" gradientUnits="userSpaceOnUse"><stop stop-color="#444444"></stop><stop offset="1" stop-color="#C8C8C8"></stop></linearGradient><clipPath id="clip0_127_230"><rect width="2069.61" height="1563" fill="white"></rect></clipPath></defs></svg> 